<svg width="20" height="20" viewBox="0 0 20 20" fill="none" xmlns="http://www.w3.org/2000/svg">
<path d="M15.1833 17.2917H4.81668C4.52769 17.2799 4.24386 17.2112 3.98144 17.0896C3.71901 16.968 3.48314 16.7959 3.28731 16.583C3.09149 16.3702 2.93956 16.1208 2.84021 15.8492C2.74086 15.5775 2.69606 15.289 2.70835 15V12.5C2.70835 12.3342 2.7742 12.1753 2.89141 12.0581C3.00862 11.9408 3.16759 11.875 3.33335 11.875C3.49911 11.875 3.65808 11.9408 3.77529 12.0581C3.8925 12.1753 3.95835 12.3342 3.95835 12.5V15C3.93683 15.2474 4.01138 15.4937 4.16654 15.6876C4.3217 15.8816 4.54555 16.0083 4.79168 16.0417H15.1833C15.4295 16.0083 15.6533 15.8816 15.8085 15.6876C15.9636 15.4937 16.0382 15.2474 16.0167 15V12.5C16.0167 12.3342 16.0825 12.1753 16.1997 12.0581C16.317 11.9408 16.4759 11.875 16.6417 11.875C16.8074 11.875 16.9664 11.9408 17.0836 12.0581C17.2008 12.1753 17.2667 12.3342 17.2667 12.5V15C17.2916 15.5795 17.0867 16.1454 16.6966 16.5745C16.3064 17.0037 15.7626 17.2614 15.1833 17.2917Z" fill="#64748B"/>
<path d="M10 13.1244C9.91791 13.1248 9.83654 13.1088 9.7607 13.0773C9.68485 13.0458 9.61606 12.9995 9.55836 12.9411L6.22502 9.60772C6.11462 9.48924 6.05452 9.33253 6.05738 9.17062C6.06024 9.0087 6.12583 8.85421 6.24034 8.7397C6.35485 8.62519 6.50934 8.55959 6.67126 8.55674C6.83317 8.55388 6.98988 8.61398 7.10836 8.72438L10 11.6161L12.8917 8.72438C13.0102 8.61398 13.1669 8.55388 13.3288 8.55674C13.4907 8.55959 13.6452 8.62519 13.7597 8.7397C13.8742 8.85421 13.9398 9.0087 13.9427 9.17062C13.9455 9.33253 13.8854 9.48924 13.775 9.60772L10.4417 12.9411C10.384 12.9995 10.3152 13.0458 10.2394 13.0773C10.1635 13.1088 10.0821 13.1248 10 13.1244Z" fill="#64748B"/>
<path d="M10 13.1247C9.83491 13.1225 9.67719 13.056 9.56045 12.9392C9.4437 12.8225 9.37716 12.6648 9.375 12.4997V3.33301C9.375 3.16725 9.44085 3.00828 9.55806 2.89107C9.67527 2.77386 9.83424 2.70801 10 2.70801C10.1658 2.70801 10.3247 2.77386 10.4419 2.89107C10.5592 3.00828 10.625 3.16725 10.625 3.33301V12.4997C10.6228 12.6648 10.5563 12.8225 10.4396 12.9392C10.3228 13.056 10.1651 13.1225 10 13.1247Z" fill="#64748B"/>
</svg>
