<svg width="15" height="10" viewBox="0 0 15 10" fill="none" xmlns="http://www.w3.org/2000/svg">
<path d="M10.212 5.42553C10.8077 5.42553 11.4566 5.51064 12.1588 5.68085C12.8609 5.85106 13.5098 6.12766 14.1056 6.51064C14.7013 6.89362 14.9992 7.32979 14.9992 7.81915V9.51064H10.9141V7.81915C10.9141 6.88298 10.4673 6.09574 9.57367 5.45745C9.72261 5.43617 9.93537 5.42553 10.212 5.42553ZM2.83963 5.68085C3.54176 5.51064 4.19069 5.42553 4.78644 5.42553C5.38218 5.42553 6.03112 5.51064 6.73324 5.68085C7.43537 5.85106 8.07367 6.12766 8.64814 6.51064C9.24388 6.89362 9.54176 7.32979 9.54176 7.81915V9.51064H-0.000797678V7.81915C-0.000797678 7.32979 0.297075 6.89362 0.892819 6.51064C1.48856 6.12766 2.1375 5.85106 2.83963 5.68085ZM6.19069 3.47872C5.80771 3.88298 5.33963 4.08511 4.78644 4.08511C4.23324 4.08511 3.75452 3.88298 3.35027 3.47872C2.94601 3.07447 2.74388 2.59574 2.74388 2.04255C2.74388 1.48936 2.94601 1.01064 3.35027 0.606383C3.75452 0.202128 4.23324 0 4.78644 0C5.33963 0 5.80771 0.202128 6.19069 0.606383C6.59495 1.01064 6.79707 1.48936 6.79707 2.04255C6.79707 2.59574 6.59495 3.07447 6.19069 3.47872ZM11.6481 3.47872C11.2439 3.88298 10.7652 4.08511 10.212 4.08511C9.65878 4.08511 9.18005 3.88298 8.7758 3.47872C8.37154 3.07447 8.16942 2.59574 8.16942 2.04255C8.16942 1.48936 8.37154 1.01064 8.7758 0.606383C9.18005 0.202128 9.65878 0 10.212 0C10.7652 0 11.2439 0.202128 11.6481 0.606383C12.0524 1.01064 12.2545 1.48936 12.2545 2.04255C12.2545 2.59574 12.0524 3.07447 11.6481 3.47872Z" fill="#64748B"/>
</svg>
