<svg width="15" height="16" viewBox="0 0 15 16" fill="none" xmlns="http://www.w3.org/2000/svg">
<path fill-rule="evenodd" clip-rule="evenodd" d="M2.69506 11.2531C2.69517 11.2531 2.69526 11.253 2.91118 11.6861C3.1271 12.1191 3.12717 12.119 3.12722 12.119L3.12594 12.1197L3.12004 12.1226L3.09475 12.1355C3.07214 12.1472 3.0384 12.1647 2.99546 12.1876C2.90948 12.2335 2.78715 12.3004 2.64383 12.3839C2.35495 12.552 1.99071 12.7814 1.66853 13.0347C1.33263 13.2988 1.09911 13.5458 1.00547 13.7383C0.962876 13.8258 0.967223 13.8658 0.968763 13.8742C0.968754 13.8741 0.968768 13.8742 0.968763 13.8742C0.969163 13.8769 0.974541 13.9136 1.05559 13.9778C1.1059 14.0177 1.21478 14.0674 1.43087 14.0858C1.64268 14.1038 1.91367 14.0881 2.24236 14.0398C2.90143 13.9429 3.70454 13.729 4.57447 13.4899C4.64442 13.4707 4.71476 13.4513 4.78543 13.4318C5.58026 13.2129 6.41603 12.9828 7.18944 12.8306C8.01915 12.6674 8.84933 12.5779 9.51698 12.7275C9.85491 12.8032 10.1372 12.9358 10.3353 13.1549C10.5408 13.3822 10.603 13.6436 10.612 13.866C10.6196 14.0535 10.5892 14.2435 10.5682 14.3744C10.5662 14.387 10.5642 14.3991 10.5624 14.4105C10.5461 14.5147 10.5388 14.5783 10.5371 14.6189C10.596 14.6334 10.7132 14.6495 10.9238 14.6403C11.5076 14.6147 12.5528 14.411 14.384 13.8916C14.6411 13.8187 14.9086 13.968 14.9815 14.2251C15.0544 14.4822 14.9051 14.7497 14.6481 14.8226C12.8171 15.342 11.6745 15.5761 10.9662 15.6071C10.617 15.6224 10.3061 15.5927 10.0598 15.47C9.76978 15.3254 9.62554 15.0817 9.58361 14.8246C9.55001 14.6186 9.58374 14.4044 9.60492 14.27L9.60786 14.2513C9.63309 14.0908 9.64859 13.9923 9.64507 13.905C9.64216 13.833 9.62706 13.8145 9.61755 13.804C9.60069 13.7854 9.53022 13.7222 9.30535 13.6718C8.84739 13.5692 8.18734 13.6206 7.37622 13.7802C6.64018 13.9249 5.83903 14.1455 5.03589 14.3666C4.96756 14.3854 4.89921 14.4043 4.83089 14.423C3.9728 14.6588 3.1113 14.8901 2.38319 14.9972C2.01829 15.0509 1.66505 15.077 1.34874 15.05C1.03671 15.0234 0.713586 14.9414 0.454753 14.7364C0.228582 14.5573 0.0677422 14.327 0.0167938 14.0481C-0.0328234 13.7766 0.0336931 13.5237 0.135259 13.3149C0.329939 12.9147 0.712715 12.5552 1.07038 12.274C1.44178 11.9819 1.8484 11.7271 2.15698 11.5475C2.3124 11.457 2.44545 11.3842 2.54018 11.3337C2.58759 11.3084 2.62553 11.2887 2.65201 11.275L2.68293 11.2592L2.69151 11.2549L2.694 11.2537L2.69506 11.2531Z" fill="white"/>
<path d="M3.46474 10.6293C3.72334 9.58949 3.92604 9.0472 4.22814 8.58225C4.43164 8.27108 5.32898 6.92457 5.91533 6.05129C6.83329 4.68762 7.00484 4.43595 7.03484 4.41863C7.05063 4.40951 7.15892 4.47857 7.59613 4.77457C7.89328 4.97564 8.16877 5.16291 8.20868 5.18829C8.24702 5.21458 8.27755 5.24011 8.27588 5.24633C8.27221 5.26003 8.15482 5.43412 7.16167 6.89911C5.58359 9.22707 5.40606 9.48114 5.19087 9.70644C4.78593 10.1318 4.1477 10.6308 3.48792 11.036L3.34099 11.126L3.46474 10.6293Z" fill="white"/>
<path d="M8.3659 6.74356C8.27322 6.67601 8.22593 6.56858 8.24649 6.46197C8.26437 6.36533 8.31995 6.27745 8.93958 5.3597C9.52459 4.49141 9.93758 3.86665 10.0162 3.72756C10.1329 3.52125 10.1607 3.22838 10.0963 2.87079C10.0778 2.7604 10.0639 2.71795 10.0477 2.71361C10.0016 2.70127 9.94395 2.78192 9.12391 3.99432C8.67458 4.66006 8.60853 4.75714 8.6023 4.75547C8.59608 4.7538 7.85416 4.26004 7.60987 4.09581C7.48897 4.01404 7.38574 3.941 7.37994 3.93277C7.36867 3.91507 7.37957 3.8993 8.01692 2.95027C9.29477 1.05038 9.49185 0.76818 9.64174 0.632164C9.72654 0.554784 9.7635 0.55134 9.91947 0.611818C9.98754 0.63673 10.0482 0.654325 10.0545 0.650679C10.0609 0.647032 10.1192 0.56389 10.1824 0.467384C10.329 0.249066 10.43 0.115981 10.491 0.0629049C10.6233 -0.0524534 10.8399 -0.00377848 10.9274 0.162501C11.0051 0.306097 10.9872 0.362713 10.7466 0.727993C10.6018 0.949468 10.5722 1.00026 10.5815 1.02012C10.5876 1.03241 10.6286 1.06875 10.6721 1.10045C10.7289 1.14237 10.7643 1.17987 10.7953 1.23355C10.8682 1.35987 10.8447 1.43765 10.6398 1.75913C10.4509 2.05554 10.4634 2.01885 10.5044 2.12993C10.6028 2.39521 10.6425 2.52598 10.6822 2.71146C10.7621 3.0959 10.7648 3.32486 10.6893 3.64632C10.6516 3.80705 10.6304 3.87612 10.5919 3.95522C10.5254 4.09357 9.71337 5.31612 9.04793 6.28031C8.73347 6.7366 8.71526 6.75975 8.64007 6.78632C8.5869 6.80544 8.56248 6.80691 8.49207 6.79071C8.44284 6.78019 8.39063 6.76086 8.3659 6.74356Z" fill="white"/>
</svg>
