<svg width="24" height="24" viewBox="0 0 24 24" fill="none" xmlns="http://www.w3.org/2000/svg">
<rect width="24" height="23.9996" rx="11.9998" fill="#373435"/>
<path fill-rule="evenodd" clip-rule="evenodd" d="M7.24734 15.6904C7.24744 15.6904 7.24754 15.6903 7.46107 16.1186C7.67461 16.5468 7.67468 16.5468 7.67473 16.5467L7.67346 16.5474L7.66763 16.5503L7.64262 16.5631C7.62026 16.5746 7.58689 16.592 7.54442 16.6146C7.4594 16.6599 7.33841 16.7262 7.19668 16.8087C6.91099 16.975 6.55076 17.2018 6.23214 17.4523C5.89995 17.7135 5.66901 17.9578 5.5764 18.1481C5.53428 18.2347 5.53858 18.2742 5.5401 18.2826C5.54009 18.2825 5.54011 18.2826 5.5401 18.2826C5.5405 18.2853 5.54581 18.3216 5.62597 18.385C5.67573 18.4244 5.7834 18.4736 5.99711 18.4918C6.20658 18.5096 6.47458 18.4941 6.79964 18.4463C7.45143 18.3505 8.24567 18.1389 9.106 17.9025C9.17518 17.8835 9.24475 17.8643 9.31464 17.8451C10.1007 17.6286 10.9272 17.401 11.6921 17.2505C12.5127 17.0891 13.3337 17.0006 13.994 17.1485C14.3281 17.2234 14.6073 17.3545 14.8033 17.5712C15.0065 17.796 15.068 18.0545 15.0769 18.2744C15.0844 18.4599 15.0543 18.6478 15.0336 18.7772C15.0316 18.7897 15.0297 18.8016 15.0279 18.813C15.0117 18.916 15.0045 18.9788 15.0028 19.019C15.0611 19.0333 15.1769 19.0493 15.3853 19.0402C15.9626 19.0149 16.9963 18.8135 18.8072 18.2998C19.0615 18.2277 19.3261 18.3753 19.3982 18.6296C19.4703 18.8838 19.3226 19.1484 19.0684 19.2205C17.2576 19.7341 16.1277 19.9656 15.4271 19.9963C15.0818 20.0114 14.7744 19.9821 14.5308 19.8607C14.244 19.7177 14.1013 19.4767 14.0598 19.2224C14.0266 19.0187 14.06 18.807 14.0809 18.674L14.0838 18.6555C14.1088 18.4968 14.1241 18.3993 14.1206 18.3131C14.1177 18.2418 14.1028 18.2235 14.0934 18.2131C14.0767 18.1947 14.007 18.1323 13.7847 18.0824C13.3318 17.9809 12.679 18.0318 11.8768 18.1896C11.1489 18.3327 10.3566 18.5509 9.56233 18.7696C9.49475 18.7882 9.42716 18.8068 9.3596 18.8253C8.51097 19.0585 7.65899 19.2873 6.93891 19.3932C6.57804 19.4463 6.2287 19.472 5.91589 19.4454C5.6073 19.4191 5.28774 19.338 5.03176 19.1353C4.80809 18.9581 4.64903 18.7303 4.59864 18.4546C4.54957 18.186 4.61535 17.9359 4.7158 17.7294C4.90833 17.3337 5.28688 16.9781 5.6406 16.7C6.00789 16.4112 6.41002 16.1592 6.7152 15.9816C6.8689 15.8921 7.00049 15.82 7.09417 15.7701C7.14106 15.7451 7.17857 15.7256 7.20476 15.7121L7.23534 15.6965L7.24383 15.6922L7.24629 15.691L7.24734 15.6904Z" fill="white"/>
<path d="M8.00822 15.0735C8.26396 14.0452 8.46443 13.5088 8.76319 13.049C8.96444 12.7413 9.85188 11.4096 10.4318 10.546C11.3396 9.19739 11.5092 8.9485 11.5389 8.93137C11.5545 8.92235 11.6616 8.99065 12.094 9.28338C12.3879 9.48224 12.6603 9.66744 12.6998 9.69254C12.7377 9.71853 12.7679 9.74378 12.7662 9.74994C12.7626 9.76349 12.6465 9.93566 11.6643 11.3845C10.1037 13.6867 9.92811 13.938 9.71529 14.1608C9.31482 14.5815 8.68364 15.075 8.03114 15.4756L7.88583 15.5647L8.00822 15.0735Z" fill="white"/>
<path d="M12.8553 11.2306C12.7636 11.1638 12.7168 11.0576 12.7372 10.9522C12.7549 10.8566 12.8098 10.7697 13.4226 9.86206C14.0012 9.00335 14.4096 8.38549 14.4874 8.24794C14.6028 8.0439 14.6302 7.75427 14.5666 7.40062C14.5483 7.29145 14.5345 7.24947 14.5185 7.24518C14.4729 7.23297 14.4159 7.31273 13.6049 8.51175C13.1606 9.17014 13.0952 9.26615 13.0891 9.2645C13.0829 9.26285 12.3492 8.77454 12.1076 8.61212C11.988 8.53125 11.8859 8.45902 11.8802 8.45088C11.869 8.43337 11.8798 8.41778 12.5101 7.47922C13.7739 5.60031 13.9688 5.32122 14.117 5.18671C14.2009 5.11018 14.2374 5.10678 14.3917 5.16659C14.459 5.19122 14.519 5.20863 14.5253 5.20502C14.5315 5.20141 14.5892 5.11919 14.6517 5.02375C14.7967 4.80784 14.8966 4.67622 14.9569 4.62373C15.0878 4.50965 15.3019 4.55779 15.3885 4.72223C15.4653 4.86424 15.4477 4.92023 15.2096 5.28148C15.0665 5.50051 15.0372 5.55074 15.0464 5.57038C15.0524 5.58254 15.0929 5.61848 15.136 5.64982C15.1922 5.69128 15.2272 5.72836 15.2578 5.78146C15.33 5.90638 15.3067 5.98331 15.104 6.30123C14.9173 6.59437 14.9296 6.55809 14.9701 6.66794C15.0675 6.9303 15.1067 7.05961 15.146 7.24306C15.225 7.62324 15.2277 7.84968 15.1531 8.16759C15.1157 8.32655 15.0948 8.39485 15.0567 8.47308C14.991 8.60991 14.1879 9.81895 13.5298 10.7725C13.2188 11.2238 13.2008 11.2467 13.1264 11.2729C13.0738 11.2918 13.0497 11.2933 12.9801 11.2773C12.9314 11.2669 12.8797 11.2477 12.8553 11.2306Z" fill="white"/>
</svg>
