<svg width="22" height="29" viewBox="0 0 22 29" fill="none" xmlns="http://www.w3.org/2000/svg">
<path d="M11.0147 15.513C11.4357 15.513 11.8077 15.3172 12.2483 14.8766L20.7859 6.40756C20.4041 6.06488 19.7285 5.89844 18.7788 5.89844H2.9862C2.14419 5.89844 1.54695 6.05509 1.20427 6.3684L9.78104 14.8766C10.2118 15.3172 10.5937 15.513 11.0147 15.513ZM0.264352 21.4365L7.30396 14.4654L0.274143 7.52372C0.0979083 7.83702 0 8.35594 0 9.09025V19.9091C0 20.6239 0.0881175 21.133 0.264352 21.4365ZM21.7454 21.4267C21.9119 21.1232 22 20.6141 22 19.9091V9.09025C22 8.37552 21.9021 7.8566 21.7259 7.55309L14.7254 14.4654L21.7454 21.4267ZM3.22118 23.1009H19.0138C19.8754 23.1009 20.4824 22.9345 20.8349 22.6114L13.668 15.4935L13.061 16.0907C12.3854 16.7467 11.7392 17.06 11.0147 17.06C10.2902 17.06 9.63418 16.7467 8.95861 16.0907L8.35158 15.4935L1.19448 22.5918C1.58611 22.9247 2.27147 23.1009 3.22118 23.1009Z" fill="#007BFE"/>
</svg>
