<svg width="25" height="28" viewBox="0 0 25 28" fill="none" xmlns="http://www.w3.org/2000/svg">
<path fill-rule="evenodd" clip-rule="evenodd" d="M6.80212 14.0002C6.80212 15.8786 5.27948 17.4012 3.40106 17.4012C1.52264 17.4012 0 15.8786 0 14.0002C0 12.1218 1.52264 10.5991 3.40106 10.5991C5.27948 10.5991 6.80212 12.1218 6.80212 14.0002ZM15.9011 14.0002C15.9011 15.8786 14.3784 17.4012 12.5 17.4012C10.6216 17.4012 9.09894 15.8786 9.09894 14.0002C9.09894 12.1218 10.6216 10.5991 12.5 10.5991C14.3784 10.5991 15.9011 12.1218 15.9011 14.0002ZM21.5989 17.4012C23.4774 17.4012 25 15.8786 25 14.0002C25 12.1218 23.4774 10.5991 21.5989 10.5991C19.7205 10.5991 18.1979 12.1218 18.1979 14.0002C18.1979 15.8786 19.7205 17.4012 21.5989 17.4012Z" fill="#8E8E93"/>
</svg>
