<svg width="25" height="29" viewBox="0 0 25 29" fill="none" xmlns="http://www.w3.org/2000/svg">
<path d="M0 13.8902C0 14.4217 0.408831 14.8816 1.06296 14.8816C1.3798 14.8816 1.66599 14.7079 1.9215 14.5035L12.0605 5.98956C12.3467 5.74426 12.6738 5.74426 12.9599 5.98956L23.0887 14.5035C23.334 14.7079 23.6202 14.8816 23.937 14.8816C24.5401 14.8816 25 14.5035 25 13.9107C25 13.5631 24.8671 13.2872 24.6014 13.0623L21.7294 10.6502V6.39839C21.7294 5.93845 21.433 5.65227 20.973 5.65227H19.5626C19.1128 5.65227 18.8062 5.93845 18.8062 6.39839V8.18702L13.9616 4.11916C13.0724 3.37304 11.9481 3.37304 11.0589 4.11916L0.408831 13.0623C0.13287 13.2872 0 13.5938 0 13.8902ZM3.32175 23.0787C3.32175 24.5505 4.24162 25.4397 5.76451 25.4397H19.2457C20.7584 25.4397 21.6885 24.5505 21.6885 23.0787V15.3109L13.1337 8.14614C12.7351 7.79863 12.2547 7.80885 11.8663 8.14614L3.32175 15.3109V23.0787ZM15.1881 23.5182H9.82216V16.9769C9.82216 16.4965 10.139 16.1899 10.6194 16.1899H14.4011C14.8814 16.1899 15.1881 16.4965 15.1881 16.9769V23.5182Z" fill="#8E8E93"/>
</svg>
