<svg width="24" height="24" viewBox="0 0 24 24" fill="none" xmlns="http://www.w3.org/2000/svg">
<path d="M12 15.2497C11.9015 15.2501 11.8038 15.2309 11.7128 15.1931C11.6218 15.1554 11.5392 15.0998 11.47 15.0297L6.47 10.0297C6.37027 9.88377 6.32527 9.70735 6.34293 9.53151C6.36058 9.35567 6.43977 9.19171 6.56651 9.06856C6.69325 8.9454 6.85941 8.87096 7.03569 8.85836C7.21196 8.84575 7.38702 8.8958 7.53 8.99967L12 13.4397L16.47 8.99967C16.611 8.90828 16.7785 8.86686 16.9458 8.88205C17.1131 8.89724 17.2705 8.96815 17.3927 9.08343C17.5149 9.19871 17.5948 9.35168 17.6197 9.51781C17.6446 9.68395 17.613 9.85363 17.53 9.99967L12.53 14.9997C12.4633 15.0752 12.3819 15.1364 12.2908 15.1794C12.1997 15.2224 12.1007 15.2463 12 15.2497Z" fill="#64748B"/>
</svg>
