<svg width="16" height="20" viewBox="0 0 16 20" fill="none" xmlns="http://www.w3.org/2000/svg">
<path d="M3.00877 20H12.8473C14.8316 20 15.856 18.9571 15.856 16.9635V8.58329C15.856 7.29119 15.6899 6.70051 14.8869 5.8791L10.06 0.978311C9.2755 0.184587 8.62944 0 7.46654 0H3.00877C1.03369 0 0 1.04292 0 3.04569V16.9635C0 18.9571 1.03369 20 3.00877 20ZM3.16567 18.1541C2.27965 18.1541 1.83664 17.6927 1.83664 16.8436V3.15644C1.83664 2.31657 2.27965 1.84587 3.1749 1.84587H7.08814V6.86664C7.08814 8.20489 7.74342 8.85095 9.07245 8.85095H14.0194V16.8436C14.0194 17.6927 13.5764 18.1541 12.6811 18.1541H3.16567ZM9.24781 7.23581C8.86018 7.23581 8.69405 7.06968 8.69405 6.69128V2.08583L13.7702 7.23581H9.24781ZM8.74019 10.6507C8.74019 10.1984 8.37102 9.86617 7.92801 9.86617C7.485 9.86617 7.11583 10.1984 7.11583 10.6507V13.4379L7.18966 14.8593L6.479 14.1209L5.7868 13.4102C5.64836 13.2626 5.43609 13.1611 5.24227 13.1611C4.81772 13.1611 4.50392 13.4656 4.50392 13.8717C4.50392 14.1024 4.59622 14.2778 4.77157 14.4347L7.30964 16.7605C7.52192 16.9543 7.69728 17.0466 7.92801 17.0466C8.15874 17.0466 8.3341 16.9543 8.54638 16.7605L11.0844 14.4347C11.2598 14.2778 11.3521 14.1024 11.3521 13.8717C11.3521 13.4656 11.0383 13.1611 10.6138 13.1611C10.4199 13.1611 10.2077 13.2626 10.0692 13.4102L9.37702 14.1209L8.66636 14.8593L8.74019 13.4379V10.6507Z" fill="#007AFF"/>
</svg>
