<svg width="20" height="20" viewBox="0 0 20 20" fill="none" xmlns="http://www.w3.org/2000/svg">
<path d="M10.8833 9.99997L14.5667 6.31663C14.6281 6.25941 14.6773 6.19041 14.7115 6.11375C14.7456 6.03708 14.764 5.95432 14.7655 5.8704C14.767 5.78648 14.7515 5.70312 14.7201 5.6253C14.6887 5.54748 14.6419 5.47678 14.5825 5.41743C14.5232 5.35808 14.4525 5.3113 14.3747 5.27986C14.2968 5.24843 14.2135 5.23299 14.1296 5.23447C14.0456 5.23595 13.9629 5.25432 13.8862 5.28848C13.8096 5.32264 13.7406 5.37189 13.6833 5.4333L10 9.11663L6.31667 5.4333C6.19819 5.3229 6.04148 5.2628 5.87956 5.26565C5.71765 5.26851 5.56316 5.3341 5.44865 5.44861C5.33414 5.56312 5.26854 5.71761 5.26569 5.87953C5.26283 6.04145 5.32293 6.19815 5.43333 6.31663L9.11667 9.99997L5.43333 13.6833C5.31629 13.8005 5.25055 13.9593 5.25055 14.125C5.25055 14.2906 5.31629 14.4494 5.43333 14.5666C5.55052 14.6837 5.70937 14.7494 5.875 14.7494C6.04062 14.7494 6.19948 14.6837 6.31667 14.5666L10 10.8833L13.6833 14.5666C13.8005 14.6837 13.9594 14.7494 14.125 14.7494C14.2906 14.7494 14.4495 14.6837 14.5667 14.5666C14.6837 14.4494 14.7494 14.2906 14.7494 14.125C14.7494 13.9593 14.6837 13.8005 14.5667 13.6833L10.8833 9.99997Z" fill="#1E293B"/>
</svg>
