<svg width="22" height="29" viewBox="0 0 22 29" fill="none" xmlns="http://www.w3.org/2000/svg">
<path d="M11.0147 15.5135C11.4357 15.5135 11.8077 15.3177 12.2483 14.8771L20.7859 6.40805C20.4041 6.06537 19.7285 5.89893 18.7788 5.89893H2.9862C2.14419 5.89893 1.54695 6.05558 1.20427 6.36889L9.78104 14.8771C10.2118 15.3177 10.5937 15.5135 11.0147 15.5135ZM0.264352 21.437L7.30396 14.4659L0.274143 7.5242C0.0979083 7.83751 0 8.35643 0 9.09074V19.9096C0 20.6243 0.0881175 21.1335 0.264352 21.437ZM21.7454 21.4272C21.9119 21.1237 22 20.6145 22 19.9096V9.09074C22 8.37601 21.9021 7.85709 21.7259 7.55358L14.7254 14.4659L21.7454 21.4272ZM3.22118 23.1014H19.0138C19.8754 23.1014 20.4824 22.935 20.8349 22.6119L13.668 15.4939L13.061 16.0912C12.3854 16.7472 11.7392 17.0605 11.0147 17.0605C10.2902 17.0605 9.63418 16.7472 8.95861 16.0912L8.35158 15.4939L1.19448 22.5923C1.58611 22.9252 2.27147 23.1014 3.22118 23.1014Z" fill="#8E8E93"/>
</svg>
