<svg width="222" height="51" viewBox="0 0 222 51" fill="none" xmlns="http://www.w3.org/2000/svg">
<path d="M48.8387 41.3897V38.676L52.3492 38.0729V13.3699L48.8387 12.7668V10.0316H61.1148C63.8859 10.0316 66.2981 10.6921 68.3513 12.013C70.4189 13.334 72.027 15.1503 73.1756 17.4619C74.3243 19.7736 74.8986 22.4155 74.8986 25.3876V26.0552C74.8986 28.9556 74.3458 31.5687 73.2402 33.8947C72.1347 36.2064 70.5625 38.0371 68.5236 39.3867C66.4991 40.722 64.1013 41.3897 61.3302 41.3897H48.8387ZM56.592 38.0729H61.1148C63.0963 38.0729 64.7977 37.5345 66.2191 36.4577C67.6406 35.3665 68.7318 33.9163 69.4928 32.1072C70.2681 30.2837 70.6558 28.2664 70.6558 26.0552V25.3445C70.6558 23.0616 70.2681 21.0227 69.4928 19.228C68.7318 17.4189 67.6406 15.9902 66.2191 14.9421C64.7977 13.8939 63.0963 13.3699 61.1148 13.3699H56.592V38.0729Z" fill="white"/>
<path d="M77.7415 41.3897V38.676L81.252 38.0729V21.4248L77.7415 20.8217V18.0865H85.4949V38.0729L89.0054 38.676V41.3897H77.7415ZM81.0367 12.3361V7.79177H85.4949V12.3361H81.0367Z" fill="white"/>
<path d="M102.165 50.8014C101.045 50.8014 99.8314 50.6434 98.5248 50.3276C97.2182 50.026 96.0696 49.6097 95.0789 49.0784L96.1773 45.7832C96.967 46.1996 97.9002 46.5442 98.9771 46.817C100.054 47.0898 101.102 47.2262 102.122 47.2262C104.017 47.2262 105.402 46.695 106.278 45.6325C107.168 44.57 107.613 43.0552 107.613 41.0881V38.8698C106.852 39.8462 105.941 40.5856 104.878 41.0881C103.816 41.5907 102.595 41.8419 101.217 41.8419C99.3217 41.8419 97.6849 41.3753 96.3065 40.442C94.9281 39.4944 93.8656 38.1806 93.119 36.5007C92.3867 34.8065 92.0206 32.8466 92.0206 30.6211V30.1688C92.0206 27.6705 92.3867 25.4809 93.119 23.6C93.8656 21.7191 94.9281 20.2618 96.3065 19.228C97.6849 18.1798 99.336 17.6558 101.26 17.6558C102.725 17.6558 104.01 17.9429 105.115 18.5172C106.221 19.0916 107.147 19.9243 107.893 21.0156L108.281 18.0865H111.856V41.0881C111.856 43.0983 111.476 44.8284 110.715 46.2786C109.968 47.7288 108.87 48.8415 107.42 49.6168C105.984 50.4065 104.232 50.8014 102.165 50.8014ZM102.272 38.396C103.55 38.396 104.62 38.1088 105.481 37.5345C106.343 36.9458 107.054 36.1203 107.613 35.0578V24.3323C107.068 23.3416 106.357 22.559 105.481 21.9847C104.605 21.396 103.55 21.1017 102.315 21.1017C100.966 21.1017 99.8386 21.4894 98.934 22.2647C98.0438 23.04 97.3762 24.1097 96.9311 25.4737C96.486 26.8234 96.2634 28.3884 96.2634 30.1688V30.6211C96.2634 32.9615 96.7588 34.8424 97.7495 36.2638C98.7402 37.6853 100.248 38.396 102.272 38.396ZM111.21 21.554L109.552 18.0865H114.742V20.8002L111.21 21.554Z" fill="white"/>
<path d="M116.724 41.3897V38.676L120.234 38.0729V21.4248L116.724 20.8217V18.0865H124.477V38.0729L127.988 38.676V41.3897H116.724ZM120.019 12.3361V7.79177H124.477V12.3361H120.019Z" fill="white"/>
<path d="M142.374 41.8419C140.465 41.8419 138.627 41.562 136.861 41.002C135.095 40.442 133.408 39.5805 131.8 38.4175V31.7195H135.095L135.806 36.6515C136.739 37.2258 137.751 37.6709 138.842 37.9868C139.934 38.3027 141.111 38.4606 142.374 38.4606C143.81 38.4606 145.023 38.2452 146.014 37.8145C147.019 37.3694 147.787 36.7592 148.319 35.9838C148.85 35.2085 149.115 34.304 149.115 33.2702C149.115 32.3082 148.886 31.4611 148.426 30.7288C147.967 29.9965 147.206 29.3576 146.143 28.812C145.095 28.252 143.659 27.7639 141.836 27.3475C139.682 26.8449 137.859 26.1773 136.366 25.3445C134.887 24.4974 133.76 23.478 132.984 22.2862C132.223 21.0802 131.843 19.7018 131.843 18.1511C131.843 16.5143 132.273 15.0498 133.135 13.7575C134.011 12.4653 135.224 11.4459 136.775 10.6993C138.325 9.95266 140.135 9.57935 142.202 9.57935C144.399 9.57935 146.337 9.91676 148.017 10.5916C149.711 11.2521 151.104 12.0561 152.195 13.0037V19.271H148.9L148.189 14.7913C147.543 14.2744 146.739 13.8437 145.777 13.4991C144.815 13.1545 143.624 12.9822 142.202 12.9822C140.996 12.9822 139.934 13.1976 139.015 13.6283C138.096 14.0447 137.378 14.6334 136.861 15.3944C136.344 16.1553 136.086 17.0527 136.086 18.0865C136.086 18.9911 136.315 19.7808 136.775 20.4556C137.249 21.1304 138.01 21.7263 139.058 22.2432C140.12 22.7457 141.534 23.2195 143.3 23.6646C146.603 24.483 149.101 25.6963 150.795 27.3044C152.504 28.8981 153.358 30.8724 153.358 33.2271C153.358 34.907 152.906 36.4002 152.001 37.7068C151.097 38.999 149.819 40.0113 148.168 40.7436C146.531 41.4758 144.6 41.8419 142.374 41.8419Z" fill="white"/>
<path d="M156.74 41.3897V38.676L160.25 38.0729V21.4248L156.74 20.8217V18.0865H164.493V38.0729L168.004 38.676V41.3897H156.74ZM160.035 12.3361V7.79177H164.493V12.3361H160.035Z" fill="white"/>
<path d="M181.163 50.8014C180.043 50.8014 178.83 50.6434 177.523 50.3276C176.216 50.026 175.068 49.6097 174.077 49.0784L175.175 45.7832C175.965 46.1996 176.898 46.5442 177.975 46.817C179.052 47.0898 180.1 47.2262 181.12 47.2262C183.015 47.2262 184.4 46.695 185.276 45.6325C186.167 44.57 186.612 43.0552 186.612 41.0881V38.8698C185.851 39.8462 184.939 40.5856 183.876 41.0881C182.814 41.5907 181.593 41.8419 180.215 41.8419C178.32 41.8419 176.683 41.3753 175.305 40.442C173.926 39.4944 172.864 38.1806 172.117 36.5007C171.385 34.8065 171.019 32.8466 171.019 30.6211V30.1688C171.019 27.6705 171.385 25.4809 172.117 23.6C172.864 21.7191 173.926 20.2618 175.305 19.228C176.683 18.1798 178.334 17.6558 180.258 17.6558C181.723 17.6558 183.008 17.9429 184.113 18.5172C185.219 19.0916 186.145 19.9243 186.892 21.0156L187.279 18.0865H190.854V41.0881C190.854 43.0983 190.474 44.8284 189.713 46.2786C188.966 47.7288 187.868 48.8415 186.418 49.6168C184.982 50.4065 183.23 50.8014 181.163 50.8014ZM181.27 38.396C182.548 38.396 183.618 38.1088 184.479 37.5345C185.341 36.9458 186.052 36.1203 186.612 35.0578V24.3323C186.066 23.3416 185.355 22.559 184.479 21.9847C183.604 21.396 182.548 21.1017 181.313 21.1017C179.964 21.1017 178.837 21.4894 177.932 22.2647C177.042 23.04 176.374 24.1097 175.929 25.4737C175.484 26.8234 175.262 28.3884 175.262 30.1688V30.6211C175.262 32.9615 175.757 34.8424 176.748 36.2638C177.738 37.6853 179.246 38.396 181.27 38.396ZM190.208 21.554L188.55 18.0865H193.74V20.8002L190.208 21.554Z" fill="white"/>
<path d="M195.873 41.3897V38.676L199.383 38.0729V21.4248L195.873 20.8217V18.0865H203.174L203.475 21.554C204.251 20.3192 205.22 19.3644 206.383 18.6895C207.56 18.0004 208.895 17.6558 210.389 17.6558C212.901 17.6558 214.847 18.3952 216.225 19.8741C217.604 21.3386 218.293 23.6072 218.293 26.6798V38.0729L221.803 38.676V41.3897H210.539V38.676L214.05 38.0729V26.766C214.05 24.7128 213.641 23.2554 212.822 22.3939C212.018 21.5324 210.783 21.1017 209.118 21.1017C207.897 21.1017 206.813 21.396 205.866 21.9847C204.933 22.5734 204.186 23.3775 203.626 24.3969V38.0729L207.136 38.676V41.3897H195.873Z" fill="white"/>
<path d="M26.9406 21.1111C26.8734 21.4594 27.0279 21.8104 27.3307 22.031C27.4115 22.0876 27.5821 22.1507 27.7429 22.1851C27.9729 22.238 28.0527 22.2332 28.2264 22.1708C28.472 22.084 28.5315 22.0083 29.5588 20.5177C31.7328 17.3677 34.3857 13.3738 34.6028 12.9218C34.7287 12.6634 34.7979 12.4377 34.9211 11.9126C35.1677 10.8624 35.1588 10.1144 34.8979 8.85854C34.7682 8.25257 34.6384 7.82538 34.3169 6.95872C34.274 6.84242 34.2407 6.77571 34.2355 6.70686C34.2244 6.56089 34.3399 6.40536 34.7592 5.74734C35.4287 4.69711 35.5055 4.44299 35.2673 4.03032C35.166 3.85494 35.0506 3.73244 34.8649 3.59548C34.7226 3.49194 34.5887 3.37322 34.5689 3.33305C34.5384 3.26817 34.6351 3.10225 35.1081 2.3787C35.8944 1.18537 35.9527 1.00041 35.699 0.531291C35.4129 -0.0119302 34.7055 -0.170947 34.2732 0.205919C34.0741 0.379315 33.7439 0.814091 33.2651 1.52732C33.0585 1.8426 32.868 2.11421 32.8473 2.12613C32.8267 2.13804 32.6285 2.08056 32.4061 1.99917C31.8965 1.8016 31.7758 1.81285 31.4988 2.06564C31.0091 2.50999 30.3652 3.43193 26.1906 9.6387L26.1092 9.75991C24.1075 12.7405 24.0733 12.7914 24.1097 12.8484C24.1286 12.8753 24.4658 13.1139 24.8608 13.3811C25.6589 13.9176 28.0827 15.5307 28.103 15.5361C28.1233 15.5416 28.3391 15.2244 29.8071 13.0495C32.486 9.08871 32.6744 8.82522 32.8249 8.86556C32.8778 8.87973 32.9235 9.01842 32.9838 9.37905C33.194 10.5473 33.1034 11.504 32.7222 12.1781C32.4652 12.6324 31.1161 14.6735 29.2049 17.5101C27.1806 20.5083 26.999 20.7954 26.9406 21.1111Z" fill="white"/>
<path d="M11.3188 34.7254C12.1636 31.3283 12.8258 29.5567 13.8127 28.0377C14.4776 27.0211 17.4091 22.6222 19.3247 19.7693C22.3236 15.3143 22.884 14.4921 22.982 14.4355C23.0336 14.4057 23.3874 14.6313 24.8157 15.5983C25.0796 15.7769 25.3382 15.9521 25.5776 16.1143L25.5824 16.1176C26.2214 16.5505 26.7221 16.8897 26.8168 16.9499C26.9421 17.0358 27.0418 17.1192 27.0364 17.1396C27.0244 17.1843 26.6409 17.753 23.3963 22.539C18.2409 30.1443 17.6609 30.9743 16.9579 31.7103C15.635 33.1 13.55 34.7302 11.3945 36.0538L10.9145 36.3481L11.3188 34.7254Z" fill="white"/>
<path d="M8.80453 36.7639C8.80488 36.7637 8.80518 36.7636 9.51058 38.1782C10.216 39.5928 10.2162 39.5927 10.2164 39.5926L10.2122 39.5947L10.1929 39.6045L10.1103 39.6466C10.0364 39.6847 9.92619 39.742 9.7859 39.8168C9.50504 39.9665 9.10538 40.1853 8.63719 40.4579C7.69343 41.0072 6.50348 41.7565 5.45096 42.5841C4.35358 43.4469 3.59071 44.2538 3.28479 44.8826C3.14564 45.1687 3.15984 45.2991 3.16487 45.3267C3.16617 45.3356 3.18375 45.4555 3.44853 45.6652C3.61289 45.7954 3.96859 45.9578 4.67454 46.0179C5.36651 46.0768 6.25181 46.0256 7.32561 45.8677C9.47872 45.551 12.1024 44.8522 14.9444 44.0712C15.1729 44.0084 15.4027 43.9451 15.6336 43.8815C18.2302 43.1664 20.9606 42.4144 23.4873 41.9174C26.1979 41.3842 28.91 41.0917 31.0912 41.5806C32.1952 41.828 33.1173 42.261 33.7647 42.9769C34.436 43.7193 34.6392 44.5733 34.6685 45.2999C34.6933 45.9126 34.5939 46.5331 34.5254 46.9608C34.5188 47.002 34.5125 47.0414 34.5066 47.0789C34.4531 47.419 34.4294 47.6268 34.4237 47.7596C34.6162 47.8068 34.999 47.8595 35.6872 47.8294C37.5942 47.7459 41.0089 47.0805 46.9913 45.3836C47.8312 45.1454 48.7052 45.6331 48.9434 46.473C49.1816 47.3129 48.6939 48.1869 47.854 48.4251C41.8723 50.1218 38.1396 50.8865 35.8255 50.9879C34.6849 51.0378 33.6692 50.9409 32.8646 50.5399C31.9171 50.0676 31.4458 49.2714 31.3088 48.4314C31.1991 47.7585 31.3093 47.0589 31.3785 46.6197L31.3881 46.5587C31.4705 46.0346 31.5211 45.7124 31.5096 45.4274C31.5001 45.192 31.4508 45.1317 31.4197 45.0974C31.3646 45.0364 31.1344 44.8302 30.3998 44.6655C28.9037 44.3302 26.7473 44.4982 24.0975 45.0195C21.6929 45.4925 19.0756 46.213 16.4518 46.9354C16.2286 46.9969 16.0053 47.0584 15.7821 47.1197C12.9788 47.89 10.1644 48.6456 7.78569 48.9955C6.59359 49.1709 5.43958 49.256 4.40624 49.168C3.38686 49.0812 2.33123 48.8133 1.48564 48.1436C0.74676 47.5583 0.221308 46.8058 0.0548641 45.8949C-0.107231 45.0078 0.110072 44.1816 0.441879 43.4995C1.07788 42.1922 2.32838 41.0176 3.49685 40.0988C4.71017 39.1448 6.03856 38.3124 7.04668 37.7256C7.55442 37.43 7.98908 37.192 8.29856 37.027C8.45344 36.9444 8.57737 36.8799 8.66389 36.8354L8.7649 36.7838L8.79293 36.7697L8.80453 36.7639Z" fill="white"/>
</svg>
