<svg width="20" height="20" viewBox="0 0 20 20" fill="none" xmlns="http://www.w3.org/2000/svg">
<path d="M9.54068 4.16675C6.13097 4.16675 3.2264 6.79507 1.60047 9.25764L1.32422 9.69175L1.60836 10.1259C3.2264 12.5884 6.13097 15.2167 9.54068 15.2167C12.9504 15.2167 15.855 12.5884 17.4809 10.1259L17.765 9.69175L17.4809 9.25764C15.855 6.79507 12.9504 4.16675 9.54068 4.16675ZM9.54068 13.6382C6.95183 13.6382 4.63922 11.6729 3.2264 9.69175C4.64711 7.71064 6.95972 5.74532 9.54068 5.74532C12.1216 5.74532 14.4421 7.71064 15.855 9.69175C14.4421 11.6729 12.1295 13.6382 9.54068 13.6382Z" fill="black" fill-opacity="0.5"/>
<path d="M9.53996 6.53467C8.91553 6.53467 8.30513 6.71983 7.78594 7.06674C7.26675 7.41365 6.86209 7.90673 6.62314 8.48362C6.38418 9.06052 6.32166 9.69531 6.44348 10.3077C6.5653 10.9202 6.86599 11.4827 7.30752 11.9242C7.74905 12.3658 8.3116 12.6665 8.92403 12.7883C9.53645 12.9101 10.1713 12.8476 10.7481 12.6086C11.325 12.3697 11.8181 11.965 12.165 11.4458C12.5119 10.9266 12.6971 10.3162 12.6971 9.69181C12.6971 8.85448 12.3645 8.05145 11.7724 7.45937C11.1803 6.86729 10.3773 6.53467 9.53996 6.53467ZM9.53996 11.2704C9.22775 11.2704 8.92254 11.1778 8.66295 11.0043C8.40336 10.8309 8.20103 10.5843 8.08155 10.2959C7.96207 10.0075 7.93081 9.69006 7.99172 9.38385C8.05263 9.07763 8.20297 8.79636 8.42374 8.57559C8.64451 8.35483 8.92578 8.20448 9.23199 8.14357C9.53821 8.08266 9.8556 8.11392 10.1441 8.2334C10.4325 8.35288 10.679 8.55521 10.8525 8.8148C11.0259 9.0744 11.1185 9.3796 11.1185 9.69181C11.1185 10.1105 10.9522 10.512 10.6562 10.808C10.3601 11.1041 9.95862 11.2704 9.53996 11.2704Z" fill="black" fill-opacity="0.5"/>
</svg>
