<svg width="25" height="29" viewBox="0 0 25 29" fill="none" xmlns="http://www.w3.org/2000/svg">
<path d="M0 13.8907C0 14.4222 0.408831 14.8821 1.06296 14.8821C1.3798 14.8821 1.66599 14.7084 1.9215 14.5039L12.0605 5.99005C12.3467 5.74475 12.6738 5.74475 12.9599 5.99005L23.0887 14.5039C23.334 14.7084 23.6202 14.8821 23.937 14.8821C24.5401 14.8821 25 14.5039 25 13.9111C25 13.5636 24.8671 13.2877 24.6014 13.0628L21.7294 10.6507V6.39888C21.7294 5.93894 21.433 5.65276 20.973 5.65276H19.5626C19.1128 5.65276 18.8062 5.93894 18.8062 6.39888V8.18751L13.9616 4.11965C13.0724 3.37353 11.9481 3.37353 11.0589 4.11965L0.408831 13.0628C0.13287 13.2877 0 13.5943 0 13.8907ZM3.32175 23.0792C3.32175 24.551 4.24162 25.4402 5.76451 25.4402H19.2457C20.7584 25.4402 21.6885 24.551 21.6885 23.0792V15.3114L13.1337 8.14663C12.7351 7.79912 12.2547 7.80934 11.8663 8.14663L3.32175 15.3114V23.0792ZM15.1881 23.5187H9.82216V16.9774C9.82216 16.497 10.139 16.1904 10.6194 16.1904H14.4011C14.8814 16.1904 15.1881 16.497 15.1881 16.9774V23.5187Z" fill="#007BFE"/>
</svg>
