<svg width="393" height="44" viewBox="0 0 393 44" fill="none" xmlns="http://www.w3.org/2000/svg">
<rect y="43.6699" width="393" height="0.33" fill="#C7C7CC"/>
<path d="M23.1886 27.0509C22.8195 27.4201 22.8019 28.0792 23.1974 28.466C23.5841 28.8527 24.2433 28.8439 24.6124 28.4747L29.9913 23.087L35.379 28.4747C35.757 28.8527 36.4074 28.8527 36.7941 28.466C37.172 28.0704 37.1808 27.4288 36.7941 27.0509L31.4152 21.6632L36.7941 16.2843C37.1808 15.9064 37.1808 15.256 36.7941 14.8693C36.3986 14.4913 35.757 14.4826 35.379 14.8605L29.9913 20.2482L24.6124 14.8605C24.2433 14.4913 23.5753 14.4738 23.1974 14.8693C22.8107 15.256 22.8195 15.9152 23.1886 16.2843L28.5763 21.6632L23.1886 27.0509Z" fill="#007BFE"/>
</svg>
