<svg width="20" height="20" viewBox="0 0 20 20" fill="none" xmlns="http://www.w3.org/2000/svg">
<path d="M7.50001 15.2083C7.41609 15.2055 7.33362 15.1856 7.25768 15.1497C7.18173 15.1139 7.1139 15.063 7.05834 15L2.89168 10.8333C2.81223 10.7818 2.74553 10.7129 2.69661 10.6319C2.64768 10.5508 2.61781 10.4597 2.60925 10.3654C2.60069 10.2711 2.61366 10.1761 2.64719 10.0876C2.68072 9.99903 2.73393 9.91926 2.8028 9.85429C2.87167 9.78932 2.9544 9.74084 3.04475 9.71252C3.13509 9.6842 3.23069 9.67678 3.32433 9.69081C3.41796 9.70484 3.50718 9.73997 3.58526 9.79353C3.66333 9.84709 3.72821 9.91769 3.77501 9.99999L7.50001 13.7L16.225 4.99999C16.3425 4.92384 16.4821 4.88932 16.6215 4.90197C16.7609 4.91463 16.8921 4.97373 16.9939 5.06979C17.0957 5.16586 17.1624 5.29333 17.1831 5.43178C17.2039 5.57023 17.1775 5.71163 17.1083 5.83333L7.94168 15C7.88612 15.063 7.81829 15.1139 7.74234 15.1497C7.6664 15.1856 7.58393 15.2055 7.50001 15.2083Z" fill="white"/>
</svg>
