<svg width="20" height="20" viewBox="0 0 20 20" fill="none" xmlns="http://www.w3.org/2000/svg">
<path d="M3.50779 17.0997C3.42759 17.1006 3.34802 17.0855 3.27365 17.0555C3.19928 17.0255 3.13159 16.981 3.07446 16.9247C3.00896 16.86 2.95857 16.7817 2.92687 16.6952C2.89518 16.6088 2.88297 16.5164 2.89113 16.4247L3.14946 13.2247C3.16054 13.0761 3.22577 12.9368 3.33279 12.8331L12.5495 3.6164C13.063 3.13549 13.7462 2.87778 14.4495 2.89973C15.1481 2.90515 15.8185 3.17629 16.3245 3.65807C16.8098 4.1564 17.0889 4.8197 17.1059 5.51509C17.1229 6.21048 16.8765 6.88661 16.4161 7.40807L7.19113 16.6664C7.08788 16.7693 6.95269 16.8339 6.80779 16.8497L3.56613 17.1414L3.50779 17.0997ZM4.34113 13.5497L4.16613 15.8331L6.44946 15.6247L15.5328 6.52473C15.7099 6.31513 15.8231 6.0591 15.859 5.78705C15.8948 5.515 15.8519 5.23837 15.7352 4.99002C15.6184 4.74168 15.4329 4.53205 15.2006 4.38606C14.9682 4.24006 14.6989 4.16382 14.4245 4.1664C14.2441 4.15495 14.0633 4.18005 13.8929 4.24019C13.7225 4.30033 13.566 4.39428 13.4328 4.5164L4.34113 13.5497Z" fill="#64748B"/>
</svg>
