<svg width="18" height="18" viewBox="0 0 18 18" fill="none" xmlns="http://www.w3.org/2000/svg">
<path d="M12.166 6V7.89454H11.9887C11.8836 7.45747 11.767 7.1443 11.6389 6.95501C11.5108 6.76229 11.3351 6.60914 11.1118 6.49558C10.987 6.43363 10.7686 6.40265 10.4567 6.40265H9.95912V11.8024C9.95912 12.1603 9.97718 12.384 10.0133 12.4735C10.0527 12.5629 10.1266 12.6421 10.235 12.7109C10.3466 12.7763 10.4977 12.809 10.6882 12.809H10.9099V13H7.41232V12.809H7.634C7.82776 12.809 7.98375 12.7729 8.10198 12.7006C8.18736 12.6524 8.25469 12.5698 8.30395 12.4528C8.34007 12.3702 8.35813 12.1534 8.35813 11.8024V6.40265H7.87538C7.42546 6.40265 7.09869 6.50246 6.89508 6.70206C6.60937 6.98083 6.42874 7.37832 6.35321 7.89454H6.16602V6H12.166Z" fill="#007BFE"/>
<path d="M2.43555 5.71805V3.43555C2.43555 2.88326 2.88326 2.43555 3.43555 2.43555H5.71805M12.283 2.43555H14.5655C15.1178 2.43555 15.5655 2.88326 15.5655 3.43555V5.71805M15.5655 12.283V14.5655C15.5655 15.1178 15.1178 15.5655 14.5655 15.5655H12.283M5.71805 15.5655H3.43555C2.88326 15.5655 2.43555 15.1178 2.43555 14.5655V12.283" stroke="#007BFE"/>
</svg>
