<svg width="24" height="24" viewBox="0 0 24 24" fill="none" xmlns="http://www.w3.org/2000/svg">
<path d="M18 20H6C5.63886 20 5.28127 19.9289 4.94762 19.7907C4.61398 19.6525 4.31082 19.4499 4.05546 19.1945C3.8001 18.9392 3.59753 18.636 3.45933 18.3024C3.32113 17.9687 3.25 17.6111 3.25 17.25V11.25C3.25 11.0511 3.32902 10.8603 3.46967 10.7197C3.61032 10.579 3.80109 10.5 4 10.5C4.19891 10.5 4.38968 10.579 4.53033 10.7197C4.67098 10.8603 4.75 11.0511 4.75 11.25V17.25C4.746 17.4167 4.77538 17.5824 4.8364 17.7376C4.89742 17.8927 4.98886 18.0341 5.10534 18.1533C5.22181 18.2726 5.36097 18.3674 5.51461 18.4321C5.66826 18.4967 5.83329 18.53 6 18.53H18C18.3315 18.53 18.6495 18.3983 18.8839 18.1639C19.1183 17.9295 19.25 17.6115 19.25 17.28V11.28C19.25 11.0811 19.329 10.8903 19.4697 10.7497C19.6103 10.609 19.8011 10.53 20 10.53C20.1989 10.53 20.3897 10.609 20.5303 10.7497C20.671 10.8903 20.75 11.0811 20.75 11.28V17.28C20.7421 18.0041 20.4489 18.6959 19.934 19.2052C19.4191 19.7144 18.7242 20 18 20Z" fill="white"/>
<path d="M11.9997 15.2502C11.0923 15.2507 10.2156 14.9214 9.53307 14.3234C8.85051 13.7255 8.40861 12.8998 8.28972 12.0002H3.99972C3.86512 12.0012 3.73273 11.966 3.61644 11.8982C3.50015 11.8304 3.40425 11.7325 3.33879 11.6149C3.27333 11.4973 3.24074 11.3642 3.24442 11.2297C3.2481 11.0951 3.28793 10.9641 3.35972 10.8502L7.08973 4.85019C7.24287 4.58235 7.46641 4.36154 7.73612 4.2117C8.00582 4.06186 8.3114 3.98872 8.61972 4.00019H15.3797C15.7093 4.0011 16.0317 4.09557 16.3097 4.2726C16.5876 4.44963 16.8096 4.70195 16.9497 5.00019L20.6397 10.9402C20.6903 11.0512 20.7131 11.1728 20.7061 11.2946C20.6991 11.4164 20.6624 11.5346 20.5994 11.639C20.5363 11.7435 20.4488 11.8309 20.3443 11.8939C20.2398 11.9568 20.1215 11.9933 19.9997 12.0002H15.7097C15.5908 12.8998 15.1489 13.7255 14.4664 14.3234C13.7838 14.9214 12.9071 15.2507 11.9997 15.2502ZM5.34972 10.5302H8.99972C9.19864 10.5302 9.3894 10.6092 9.53005 10.7499C9.67071 10.8905 9.74972 11.0813 9.74972 11.2802V11.5002C9.74972 12.0969 9.98678 12.6692 10.4087 13.0912C10.8307 13.5131 11.403 13.7502 11.9997 13.7502C12.5965 13.7502 13.1688 13.5131 13.5907 13.0912C14.0127 12.6692 14.2497 12.0969 14.2497 11.5002V11.2802C14.2497 11.0813 14.3287 10.8905 14.4694 10.7499C14.61 10.6092 14.8008 10.5302 14.9997 10.5302H18.6497L15.6497 5.67019C15.5697 5.53019 15.4897 5.47019 15.3897 5.47019H8.61972C8.57249 5.47136 8.52639 5.48491 8.48603 5.50948C8.44567 5.53404 8.41246 5.56877 8.38973 5.61019L5.34972 10.5302Z" fill="white"/>
</svg>
