<svg width="17" height="44" viewBox="0 0 17 44" fill="none" xmlns="http://www.w3.org/2000/svg">
<path fill-rule="evenodd" clip-rule="evenodd" d="M1.15 13.4033C0.514873 13.4033 0 13.9182 0 14.5533V16.1611C0 16.4894 0.140301 16.802 0.385555 17.0202L5.73852 21.7832V27.6674C5.73852 28.0682 5.94713 28.44 6.28915 28.6489L9.19922 30.426C9.96126 30.8914 10.9398 30.3486 10.9485 29.4558L11.0232 21.7861L16.3795 17.0202C16.6247 16.802 16.765 16.4894 16.765 16.1611V14.5533C16.765 13.9182 16.2501 13.4033 15.615 13.4033H1.15ZM1.5 16.004V14.9033H15.265V16.004L10.3208 20.4033L6.44426 20.4033L1.5 16.004ZM7.23852 21.9033V27.4711L9.4546 28.8244L9.52202 21.9033H7.23852Z" fill="black"/>
</svg>
