<svg width="25" height="28" viewBox="0 0 25 28" fill="none" xmlns="http://www.w3.org/2000/svg">
<path fill-rule="evenodd" clip-rule="evenodd" d="M6.80212 13.9997C6.80212 15.8781 5.27948 17.4008 3.40106 17.4008C1.52264 17.4008 0 15.8781 0 13.9997C0 12.1213 1.52264 10.5986 3.40106 10.5986C5.27948 10.5986 6.80212 12.1213 6.80212 13.9997ZM15.9011 13.9997C15.9011 15.8781 14.3784 17.4008 12.5 17.4008C10.6216 17.4008 9.09894 15.8781 9.09894 13.9997C9.09894 12.1213 10.6216 10.5986 12.5 10.5986C14.3784 10.5986 15.9011 12.1213 15.9011 13.9997ZM21.5989 17.4008C23.4774 17.4008 25 15.8781 25 13.9997C25 12.1213 23.4774 10.5986 21.5989 10.5986C19.7205 10.5986 18.1979 12.1213 18.1979 13.9997C18.1979 15.8781 19.7205 17.4008 21.5989 17.4008Z" fill="#007BFE"/>
</svg>
