<svg width="20" height="20" viewBox="0 0 20 20" fill="none" xmlns="http://www.w3.org/2000/svg">
<path d="M10 12.0836C9.9179 12.084 9.83653 12.0679 9.76069 12.0365C9.68484 12.005 9.61605 11.9587 9.55835 11.9002L6.66668 8.98357C6.59052 8.8661 6.556 8.72647 6.56866 8.58705C6.58132 8.44763 6.64041 8.3165 6.73648 8.21467C6.83255 8.11284 6.96002 8.04621 7.09847 8.02546C7.23691 8.00471 7.37832 8.03104 7.50001 8.10023L10 10.6002L12.5 8.10023C12.6217 8.03104 12.7631 8.00471 12.9016 8.02546C13.04 8.04621 13.1675 8.11284 13.2635 8.21467C13.3596 8.3165 13.4187 8.44763 13.4314 8.58705C13.444 8.72647 13.4095 8.8661 13.3333 8.98357L10.4167 11.9002C10.3063 12.0122 10.1572 12.0778 10 12.0836Z" fill="#64748B"/>
</svg>
