<svg width="18" height="18" viewBox="0 0 18 18" fill="none" xmlns="http://www.w3.org/2000/svg">
<path d="M13.6648 15.5625H4.33484C4.07475 15.5519 3.8193 15.4901 3.58312 15.3807C3.34693 15.2712 3.13465 15.1163 2.9584 14.9247C2.78216 14.7332 2.64542 14.5087 2.55601 14.2642C2.4666 14.0198 2.42627 13.7601 2.43734 13.5V11.25C2.43734 11.1008 2.4966 10.9577 2.60209 10.8523C2.70758 10.7468 2.85065 10.6875 2.99984 10.6875C3.14902 10.6875 3.29209 10.7468 3.39758 10.8523C3.50307 10.9577 3.56234 11.1008 3.56234 11.25V13.5C3.54297 13.7227 3.61007 13.9443 3.74971 14.1189C3.88935 14.2934 4.09082 14.4075 4.31234 14.4375H13.6648C13.8863 14.4075 14.0878 14.2934 14.2275 14.1189C14.3671 13.9443 14.4342 13.7227 14.4148 13.5V11.25C14.4148 11.1008 14.4741 10.9577 14.5796 10.8523C14.6851 10.7468 14.8282 10.6875 14.9773 10.6875C15.1265 10.6875 15.2696 10.7468 15.3751 10.8523C15.4806 10.9577 15.5398 11.1008 15.5398 11.25V13.5C15.5623 14.0215 15.3779 14.5308 15.0268 14.9171C14.6756 15.3033 14.1861 15.5353 13.6648 15.5625Z" fill="#007BFE"/>
<path d="M11.9996 6.56201C11.9257 6.56235 11.8525 6.54794 11.7842 6.5196C11.716 6.49127 11.6541 6.44959 11.6021 6.397L8.99964 3.79451L6.39714 6.397C6.29051 6.49637 6.14947 6.55046 6.00375 6.54789C5.85802 6.54532 5.71898 6.48628 5.61592 6.38322C5.51286 6.28016 5.45383 6.14112 5.45126 5.9954C5.44869 5.84967 5.50278 5.70864 5.60214 5.60201L8.60214 2.60201C8.70761 2.49667 8.85058 2.4375 8.99964 2.4375C9.1487 2.4375 9.29167 2.49667 9.39714 2.60201L12.3971 5.60201C12.5025 5.70747 12.5616 5.85044 12.5616 5.99951C12.5616 6.14857 12.5025 6.29154 12.3971 6.397C12.3452 6.44959 12.2833 6.49127 12.215 6.5196C12.1468 6.54794 12.0735 6.56235 11.9996 6.56201Z" fill="#007BFE"/>
<path d="M9 11.8125C8.85142 11.8106 8.70947 11.7507 8.6044 11.6456C8.49933 11.5405 8.43944 11.3986 8.4375 11.25V3C8.4375 2.85082 8.49676 2.70774 8.60225 2.60225C8.70774 2.49676 8.85082 2.4375 9 2.4375C9.14918 2.4375 9.29226 2.49676 9.39775 2.60225C9.50324 2.70774 9.5625 2.85082 9.5625 3V11.25C9.56056 11.3986 9.50067 11.5405 9.3956 11.6456C9.29053 11.7507 9.14858 11.8106 9 11.8125Z" fill="#007BFE"/>
</svg>
