<svg width="24" height="24" viewBox="0 0 24 24" fill="none" xmlns="http://www.w3.org/2000/svg">
<path d="M12 21C10.22 21 8.47991 20.4722 6.99987 19.4832C5.51983 18.4943 4.36628 17.0887 3.68509 15.4442C3.0039 13.7996 2.82567 11.99 3.17294 10.2442C3.5202 8.49836 4.37737 6.89472 5.63604 5.63604C6.89472 4.37737 8.49836 3.5202 10.2442 3.17294C11.99 2.82567 13.7996 3.0039 15.4442 3.68509C17.0887 4.36628 18.4943 5.51983 19.4832 6.99987C20.4722 8.47991 21 10.22 21 12C21 14.387 20.0518 16.6761 18.364 18.364C16.6761 20.0518 14.387 21 12 21ZM12 4.5C10.5166 4.5 9.0666 4.93987 7.83323 5.76398C6.59986 6.58809 5.63856 7.75943 5.07091 9.12988C4.50325 10.5003 4.35473 12.0083 4.64411 13.4632C4.9335 14.918 5.64781 16.2544 6.6967 17.3033C7.7456 18.3522 9.08197 19.0665 10.5368 19.3559C11.9917 19.6453 13.4997 19.4968 14.8701 18.9291C16.2406 18.3614 17.4119 17.4001 18.236 16.1668C19.0601 14.9334 19.5 13.4834 19.5 12C19.5 10.0109 18.7098 8.10323 17.3033 6.6967C15.8968 5.29018 13.9891 4.5 12 4.5Z" fill="#8E8E93"/>
<path d="M8.99934 15.7498C8.9008 15.7503 8.80316 15.7311 8.71215 15.6933C8.62113 15.6555 8.53858 15.6 8.46934 15.5298C8.32889 15.3892 8.25 15.1986 8.25 14.9998C8.25 14.8011 8.32889 14.6105 8.46934 14.4698L14.4693 8.46985C14.6115 8.33737 14.7996 8.26524 14.9939 8.26867C15.1882 8.2721 15.3735 8.35081 15.511 8.48823C15.6484 8.62564 15.7271 8.81102 15.7305 9.00532C15.7339 9.19963 15.6618 9.38767 15.5293 9.52985L9.52934 15.5298C9.4601 15.6 9.37755 15.6555 9.28653 15.6933C9.19552 15.7311 9.09788 15.7503 8.99934 15.7498Z" fill="#8E8E93"/>
<path d="M15.0008 15.7498C14.9023 15.7503 14.8046 15.7311 14.7136 15.6933C14.6226 15.6555 14.5401 15.6 14.4708 15.5298L8.47082 9.52985C8.33834 9.38767 8.26622 9.19963 8.26965 9.00532C8.27308 8.81102 8.35179 8.62564 8.4892 8.48823C8.62662 8.35081 8.812 8.2721 9.0063 8.26867C9.2006 8.26524 9.38865 8.33737 9.53082 8.46985L15.5308 14.4698C15.6713 14.6105 15.7502 14.8011 15.7502 14.9998C15.7502 15.1986 15.6713 15.3892 15.5308 15.5298C15.4616 15.6 15.379 15.6555 15.288 15.6933C15.197 15.7311 15.0994 15.7503 15.0008 15.7498Z" fill="#8E8E93"/>
</svg>
