<svg width="20" height="20" viewBox="0 0 20 20" fill="none" xmlns="http://www.w3.org/2000/svg">
<path d="M15 13.9577H13.3333C13.1676 13.9577 13.0086 13.8918 12.8914 13.7746C12.7742 13.6574 12.7083 13.4984 12.7083 13.3327C12.7083 13.1669 12.7742 13.008 12.8914 12.8907C13.0086 12.7735 13.1676 12.7077 13.3333 12.7077H15C15.2763 12.7077 15.5412 12.5979 15.7366 12.4026C15.9319 12.2072 16.0417 11.9423 16.0417 11.666V8.33268C16.0417 8.05642 15.9319 7.79146 15.7366 7.59611C15.5412 7.40076 15.2763 7.29102 15 7.29102H5.00001C4.72374 7.29102 4.45879 7.40076 4.26344 7.59611C4.06809 7.79146 3.95834 8.05642 3.95834 8.33268V11.666C3.95834 11.9423 4.06809 12.2072 4.26344 12.4026C4.45879 12.5979 4.72374 12.7077 5.00001 12.7077H6.66668C6.83244 12.7077 6.99141 12.7735 7.10862 12.8907C7.22583 13.008 7.29168 13.1669 7.29168 13.3327C7.29168 13.4984 7.22583 13.6574 7.10862 13.7746C6.99141 13.8918 6.83244 13.9577 6.66668 13.9577H5.00001C4.39222 13.9577 3.80933 13.7162 3.37956 13.2865C2.94979 12.8567 2.70834 12.2738 2.70834 11.666V8.33268C2.70834 7.72489 2.94979 7.142 3.37956 6.71223C3.80933 6.28246 4.39222 6.04102 5.00001 6.04102H15C15.6078 6.04102 16.1907 6.28246 16.6205 6.71223C17.0502 7.142 17.2917 7.72489 17.2917 8.33268V11.666C17.2917 12.2738 17.0502 12.8567 16.6205 13.2865C16.1907 13.7162 15.6078 13.9577 15 13.9577Z" fill="#64748B"/>
<path d="M13.3334 7.29134C13.1683 7.28918 13.0105 7.22264 12.8938 7.1059C12.7771 6.98915 12.7105 6.83143 12.7084 6.66634V3.95801H7.29169V6.66634C7.29169 6.8321 7.22584 6.99107 7.10863 7.10828C6.99142 7.22549 6.83245 7.29134 6.66669 7.29134C6.50093 7.29134 6.34196 7.22549 6.22475 7.10828C6.10753 6.99107 6.04169 6.8321 6.04169 6.66634V3.74967C6.04169 3.47341 6.15143 3.20846 6.34678 3.0131C6.54213 2.81775 6.80709 2.70801 7.08335 2.70801H12.9167C13.193 2.70801 13.4579 2.81775 13.6533 3.0131C13.8486 3.20846 13.9584 3.47341 13.9584 3.74967V6.66634C13.9562 6.83143 13.8897 6.98915 13.7729 7.1059C13.6562 7.22264 13.4984 7.28918 13.3334 7.29134Z" fill="#64748B"/>
<path d="M12.9167 17.2917H7.08335C6.80709 17.2917 6.54213 17.1819 6.34678 16.9866C6.15143 16.7912 6.04169 16.5263 6.04169 16.25V10.4167C6.04169 10.1404 6.15143 9.87545 6.34678 9.6801C6.54213 9.48475 6.80709 9.375 7.08335 9.375H12.9167C13.193 9.375 13.4579 9.48475 13.6533 9.6801C13.8486 9.87545 13.9584 10.1404 13.9584 10.4167V16.25C13.9584 16.5263 13.8486 16.7912 13.6533 16.9866C13.4579 17.1819 13.193 17.2917 12.9167 17.2917ZM7.29169 16.0417H12.7084V10.625H7.29169V16.0417Z" fill="#64748B"/>
</svg>
