<svg width="12" height="20" viewBox="0 0 12 20" fill="none" xmlns="http://www.w3.org/2000/svg">
<path d="M0.00100908 10C0.00840901 9.7632 0.0565086 9.5449 0.145308 9.34511C0.234107 9.14531 0.371006 8.95291 0.556004 8.76791L9.06963 0.442987C9.36562 0.14699 9.72452 -0.00100908 10.1463 -0.00100908C10.4349 -0.00100908 10.6939 0.0692903 10.9233 0.209889C11.1601 0.350488 11.3488 0.539186 11.4894 0.775984C11.63 1.00538 11.7003 1.26068 11.7003 1.54188C11.7003 1.96367 11.5375 2.33737 11.2119 2.66297L3.66398 10L11.2119 17.337C11.5375 17.6626 11.7003 18.0363 11.7003 18.4581C11.7003 18.7467 11.63 19.0057 11.4894 19.2351C11.3488 19.4719 11.1601 19.6569 10.9233 19.7901C10.6939 19.9307 10.4349 20.001 10.1463 20.001C9.72452 20.001 9.36562 19.853 9.06963 19.557L0.556004 11.2321C0.363606 11.0471 0.223007 10.8547 0.134208 10.6549C0.0454087 10.4551 0.00100908 10.2368 0.00100908 10Z" fill="#007BFE"/>
</svg>
