<svg width="18" height="29" viewBox="0 0 18 29" fill="none" xmlns="http://www.w3.org/2000/svg">
<path fill-rule="evenodd" clip-rule="evenodd" d="M0 3.55957H11.1827L17.1754 9.5523V25.4396H0V3.55957ZM10.9587 9.70165V4.60503L16.0553 9.70165H10.9587ZM13.815 15.433C14.3512 15.433 14.7858 14.9984 14.7858 14.4622C14.7858 13.9261 14.3512 13.4914 13.815 13.4914C13.2789 13.4914 12.8442 13.9261 12.8442 14.4622C12.8442 14.5908 12.8692 14.7136 12.9146 14.8259L10.1159 18.2768C10.08 18.2728 10.0435 18.2707 10.0066 18.2707C9.9518 18.2707 9.89811 18.2752 9.84583 18.2839L7.12543 15.273C7.15366 15.182 7.16887 15.0853 7.16887 14.985C7.16887 14.4488 6.73424 14.0142 6.19809 14.0142C5.66194 14.0142 5.2273 14.4488 5.2273 14.985C5.2273 15.0416 5.23215 15.097 5.24145 15.151L3.47706 16.8707C3.4152 16.8583 3.35123 16.8519 3.28573 16.8519C2.74958 16.8519 2.31495 17.2865 2.31495 17.8226C2.31495 18.3588 2.74958 18.7934 3.28573 18.7934C3.82188 18.7934 4.25652 18.3588 4.25652 17.8226C4.25652 17.7448 4.24737 17.6692 4.23008 17.5967L5.9472 15.923C6.02723 15.9444 6.11133 15.9557 6.19809 15.9557C6.24137 15.9557 6.284 15.9529 6.32578 15.9474L9.07007 18.9848C9.04771 19.0666 9.03577 19.1526 9.03577 19.2415C9.03577 19.7776 9.4704 20.2123 10.0066 20.2123C10.5427 20.2123 10.9773 19.7776 10.9773 19.2415C10.9773 19.1344 10.96 19.0314 10.928 18.9351L13.7692 15.432C13.7844 15.4327 13.7996 15.433 13.815 15.433Z" fill="#8E8E93"/>
</svg>
