<svg width="24" height="24" viewBox="0 0 24 24" fill="none" xmlns="http://www.w3.org/2000/svg">
<path d="M9.00089 18.2501C8.90018 18.2467 8.80123 18.2228 8.71009 18.1798C8.61895 18.1368 8.53756 18.0757 8.47089 18.0001L3.47089 13.0001C3.37556 12.9383 3.29552 12.8556 3.23681 12.7584C3.17809 12.6611 3.14225 12.5517 3.13198 12.4386C3.12171 12.3254 3.13728 12.2114 3.17751 12.1052C3.21775 11.9989 3.2816 11.9032 3.36424 11.8252C3.44688 11.7473 3.54616 11.6891 3.65458 11.6551C3.76299 11.6211 3.87771 11.6122 3.99007 11.6291C4.10243 11.6459 4.2095 11.6881 4.30319 11.7523C4.39687 11.8166 4.47474 11.9013 4.53089 12.0001L9.00089 16.4401L19.4709 6.00009C19.6118 5.9087 19.7794 5.86728 19.9467 5.88247C20.114 5.89765 20.2714 5.96857 20.3936 6.08385C20.5158 6.19913 20.5957 6.3521 20.6206 6.51823C20.6455 6.68437 20.6139 6.85405 20.5309 7.00009L9.53089 18.0001C9.46422 18.0757 9.38283 18.1368 9.29169 18.1798C9.20056 18.2228 9.1016 18.2467 9.00089 18.2501Z" fill="#8E8E93"/>
</svg>
