<svg width="28" height="28" viewBox="0 0 28 28" fill="none" xmlns="http://www.w3.org/2000/svg">
<path fill-rule="evenodd" clip-rule="evenodd" d="M13.4725 14.4025C13.6126 14.5426 13.8019 14.6224 14 14.625C14.1981 14.6224 14.3874 14.5426 14.5275 14.4025C14.6676 14.2624 14.7474 14.0731 14.75 13.875V5.875C14.75 5.67609 14.671 5.48532 14.5303 5.34467C14.3897 5.20402 14.1989 5.125 14 5.125C13.8011 5.125 13.6103 5.20402 13.4697 5.34467C13.329 5.48532 13.25 5.67609 13.25 5.875V13.875C13.2526 14.0731 13.3324 14.2624 13.4725 14.4025ZM9.00391 21.3553C10.4825 22.3443 12.221 22.873 13.9999 22.8746C15.7788 22.873 17.5173 22.3443 18.9959 21.3553C20.4745 20.3663 21.6268 18.9612 22.3073 17.3177C22.9879 15.6741 23.1661 13.8657 22.8195 12.121C22.4729 10.3762 21.617 8.77323 20.3599 7.51459C20.291 7.44383 20.2085 7.38759 20.1175 7.3492C20.0265 7.3108 19.9287 7.29102 19.8299 7.29102C19.7311 7.29102 19.6333 7.3108 19.5423 7.3492C19.4513 7.38759 19.3688 7.44383 19.2999 7.51459C19.1594 7.65521 19.0806 7.84583 19.0806 8.04459C19.0806 8.24334 19.1594 8.43396 19.2999 8.57459C19.9977 9.26956 20.5515 10.0955 20.9293 11.005C21.3071 11.9145 21.5016 12.8897 21.5016 13.8746C21.5016 14.8595 21.3071 15.8346 20.9293 16.7441C20.5515 17.6537 19.9977 18.4796 19.2999 19.1746C18.6133 19.9115 17.7853 20.5025 16.8653 20.9124C15.9453 21.3223 14.9522 21.5427 13.9451 21.5605C12.9381 21.5783 11.9378 21.393 11.0039 21.0158C10.07 20.6386 9.2217 20.0772 8.50952 19.365C7.79733 18.6528 7.23588 17.8044 6.85867 16.8706C6.48146 15.9367 6.29622 14.9364 6.31398 13.9294C6.33175 12.9223 6.55217 11.9292 6.96209 11.0092C7.37201 10.0892 7.96303 9.26121 8.6999 8.57459C8.84035 8.43396 8.91924 8.24334 8.91924 8.04459C8.91924 7.84583 8.84035 7.65521 8.6999 7.51459C8.63095 7.44383 8.54854 7.38759 8.45751 7.3492C8.36649 7.3108 8.26869 7.29102 8.1699 7.29102C8.07111 7.29102 7.97331 7.3108 7.88229 7.3492C7.79126 7.38759 7.70885 7.44383 7.6399 7.51459C6.38282 8.77323 5.52693 10.3762 5.18032 12.121C4.8337 13.8657 5.01192 15.6741 5.69246 17.3177C6.37299 18.9612 7.52532 20.3663 9.00391 21.3553Z" fill="#1E293B"/>
<path d="M14 14.625L13.9948 15.0251L14.0052 15.025L14 14.625ZM14.75 13.875L15.15 13.8802V13.875H14.75ZM14.5303 5.34467L14.8132 5.06183V5.06183L14.5303 5.34467ZM13.4697 5.34467L13.1868 5.06183V5.06183L13.4697 5.34467ZM13.25 13.875H12.85L12.85 13.8802L13.25 13.875ZM13.9999 22.8746L13.9995 23.2746H14.0003L13.9999 22.8746ZM9.00391 21.3553L8.78152 21.6878H8.78152L9.00391 21.3553ZM18.9959 21.3553L19.2183 21.6878L18.9959 21.3553ZM20.3599 7.51459L20.0734 7.79376L20.0769 7.79725L20.3599 7.51459ZM19.2999 7.51459L19.5829 7.79727L19.5864 7.79374L19.2999 7.51459ZM19.2999 8.57459L19.0169 8.85725L19.0176 8.85801L19.2999 8.57459ZM19.2999 19.1746L19.0176 18.8912L19.0123 18.8964L19.0073 18.9019L19.2999 19.1746ZM8.50952 19.365L8.22667 19.6478H8.22667L8.50952 19.365ZM6.31398 13.9294L5.91405 13.9223L6.31398 13.9294ZM6.96209 11.0092L6.59672 10.8464L6.96209 11.0092ZM8.6999 8.57459L8.97259 8.86723L8.97784 8.86233L8.98292 8.85725L8.6999 8.57459ZM8.6999 7.51459L8.41339 7.79376L8.41688 7.79725L8.6999 7.51459ZM7.6399 7.51459L7.92294 7.79727L7.92639 7.79374L7.6399 7.51459ZM5.69246 17.3177L5.32289 17.4707L5.69246 17.3177ZM14.0052 14.225C13.9114 14.2238 13.8217 14.186 13.7554 14.1196L13.1897 14.6853C13.4035 14.8991 13.6924 15.021 13.9948 15.025L14.0052 14.225ZM14.2446 14.1196C14.1783 14.186 14.0886 14.2238 13.9948 14.225L14.0052 15.025C14.3076 15.021 14.5965 14.8991 14.8103 14.6853L14.2446 14.1196ZM14.35 13.8698C14.3488 13.9636 14.311 14.0533 14.2446 14.1196L14.8103 14.6853C15.0241 14.4715 15.146 14.1826 15.15 13.8802L14.35 13.8698ZM14.35 5.875V13.875H15.15V5.875H14.35ZM14.2475 5.62751C14.3131 5.69315 14.35 5.78217 14.35 5.875H15.15C15.15 5.57 15.0288 5.27749 14.8132 5.06183L14.2475 5.62751ZM14 5.525C14.0928 5.525 14.1818 5.56187 14.2475 5.62751L14.8132 5.06183C14.5975 4.84616 14.305 4.725 14 4.725V5.525ZM13.7525 5.62751C13.8182 5.56187 13.9072 5.525 14 5.525V4.725C13.695 4.725 13.4025 4.84616 13.1868 5.06183L13.7525 5.62751ZM13.65 5.875C13.65 5.78217 13.6869 5.69315 13.7525 5.62751L13.1868 5.06183C12.9712 5.27749 12.85 5.57 12.85 5.875H13.65ZM13.65 13.875V5.875H12.85V13.875H13.65ZM13.7554 14.1196C13.689 14.0533 13.6512 13.9636 13.65 13.8698L12.85 13.8802C12.854 14.1826 12.9759 14.4715 13.1897 14.6853L13.7554 14.1196ZM14.0003 22.4746C12.3004 22.4731 10.6392 21.9679 9.22631 21.0228L8.78152 21.6878C10.3258 22.7208 12.1416 23.273 13.9995 23.2746L14.0003 22.4746ZM18.7735 21.0228C17.3606 21.9679 15.6994 22.4731 13.9995 22.4746L14.0003 23.2746C15.8582 23.273 17.674 22.7208 19.2183 21.6878L18.7735 21.0228ZM21.9378 17.1646C21.2875 18.7352 20.1864 20.0777 18.7735 21.0228L19.2183 21.6878C20.7626 20.6548 21.9661 19.1873 22.6769 17.4707L21.9378 17.1646ZM22.4272 12.1989C22.7584 13.8661 22.5881 15.5941 21.9378 17.1646L22.6769 17.4707C23.3877 15.7541 23.5738 13.8653 23.2118 12.043L22.4272 12.1989ZM20.0769 7.79725C21.2781 8.99995 22.0959 10.5317 22.4272 12.1989L23.2118 12.043C22.8498 10.2207 21.9559 8.5465 20.6429 7.23192L20.0769 7.79725ZM19.962 7.71775C20.0039 7.73539 20.0417 7.76123 20.0734 7.79374L20.6464 7.23543C20.5402 7.12643 20.4132 7.0398 20.273 6.98064L19.962 7.71775ZM19.8299 7.69102C19.8753 7.69102 19.9202 7.7001 19.962 7.71775L20.273 6.98064C20.1327 6.92149 19.9821 6.89102 19.8299 6.89102V7.69102ZM19.6978 7.71775C19.7396 7.7001 19.7845 7.69102 19.8299 7.69102V6.89102C19.6777 6.89102 19.5271 6.92149 19.3868 6.98064L19.6978 7.71775ZM19.5864 7.79374C19.6181 7.76123 19.6559 7.73539 19.6978 7.71775L19.3868 6.98064C19.2466 7.0398 19.1196 7.12643 19.0134 7.23543L19.5864 7.79374ZM19.4806 8.04459C19.4806 7.95183 19.5174 7.86288 19.5829 7.79725L19.0169 7.23192C18.8015 7.44755 18.6806 7.73984 18.6806 8.04459H19.4806ZM19.5829 8.29192C19.5174 8.22629 19.4806 8.13734 19.4806 8.04459H18.6806C18.6806 8.34934 18.8015 8.64163 19.0169 8.85725L19.5829 8.29192ZM21.2987 10.8516C20.9006 9.89342 20.3173 9.02331 19.5822 8.29116L19.0176 8.85801C19.6782 9.51582 20.2023 10.2976 20.5599 11.1585L21.2987 10.8516ZM21.9016 13.8746C21.9016 12.837 21.6967 11.8097 21.2987 10.8516L20.5599 11.1585C20.9175 12.0194 21.1016 12.9424 21.1016 13.8746H21.9016ZM21.2987 16.8976C21.6967 15.9394 21.9016 14.9121 21.9016 13.8746H21.1016C21.1016 14.8068 20.9175 15.7298 20.5599 16.5907L21.2987 16.8976ZM19.5822 19.458C20.3173 18.7259 20.9006 17.8558 21.2987 16.8976L20.5599 16.5907C20.2023 17.4516 19.6782 18.2333 19.0176 18.8912L19.5822 19.458ZM17.0281 21.2778C17.9971 20.846 18.8693 20.2234 19.5925 19.4473L19.0073 18.9019C18.3573 19.5995 17.5734 20.159 16.7025 20.547L17.0281 21.2778ZM13.9522 21.9604C15.0129 21.9417 16.059 21.7095 17.0281 21.2778L16.7025 20.547C15.8316 20.9351 14.8914 21.1437 13.9381 21.1606L13.9522 21.9604ZM10.8541 21.3867C11.8378 21.784 12.8914 21.9792 13.9522 21.9604L13.9381 21.1606C12.9847 21.1774 12.0378 21.002 11.1537 20.6449L10.8541 21.3867ZM8.22667 19.6478C8.97684 20.398 9.87043 20.9894 10.8541 21.3867L11.1537 20.6449C10.2697 20.2878 9.46656 19.7563 8.79236 19.0821L8.22667 19.6478ZM6.48779 17.0204C6.88511 18.0041 7.4765 18.8976 8.22667 19.6478L8.79236 19.0821C8.11816 18.4079 7.58665 17.6048 7.22956 16.7208L6.48779 17.0204ZM5.91405 13.9223C5.89533 14.983 6.09046 16.0367 6.48779 17.0204L7.22956 16.7208C6.87247 15.8367 6.6971 14.8897 6.71392 13.9364L5.91405 13.9223ZM6.59672 10.8464C6.16494 11.8155 5.93276 12.8616 5.91405 13.9223L6.71392 13.9364C6.73074 12.9831 6.93941 12.0429 7.32746 11.172L6.59672 10.8464ZM8.42721 8.28194C7.65104 9.00518 7.0285 9.87735 6.59672 10.8464L7.32746 11.172C7.71552 10.3011 8.27502 9.51723 8.97259 8.86723L8.42721 8.28194ZM8.51924 8.04459C8.51924 8.13734 8.48243 8.22629 8.41688 8.29192L8.98292 8.85725C9.19828 8.64163 9.31924 8.34934 9.31924 8.04459H8.51924ZM8.41688 7.79725C8.48243 7.86288 8.51924 7.95184 8.51924 8.04459H9.31924C9.31924 7.73983 9.19828 7.44754 8.98292 7.23192L8.41688 7.79725ZM8.30205 7.71775C8.34387 7.73539 8.38174 7.76123 8.41341 7.79374L8.98639 7.23543C8.88017 7.12643 8.75321 7.0398 8.61298 6.98064L8.30205 7.71775ZM8.1699 7.69102C8.21529 7.69102 8.26022 7.7001 8.30205 7.71775L8.61298 6.98064C8.47275 6.92149 8.32209 6.89102 8.1699 6.89102V7.69102ZM8.03775 7.71775C8.07958 7.7001 8.12451 7.69102 8.1699 7.69102V6.89102C8.01771 6.89102 7.86705 6.92149 7.72682 6.98064L8.03775 7.71775ZM7.92639 7.79374C7.95806 7.76123 7.99593 7.73539 8.03775 7.71775L7.72682 6.98064C7.58659 7.0398 7.45963 7.12643 7.35341 7.23543L7.92639 7.79374ZM5.57265 12.1989C5.90386 10.5317 6.72171 8.99995 7.92292 7.79725L7.35688 7.23192C6.04393 8.5465 5.15 10.2207 4.78798 12.043L5.57265 12.1989ZM6.06203 17.1646C5.41174 15.5941 5.24144 13.8661 5.57265 12.1989L4.78798 12.043C4.42597 13.8653 4.6121 15.7541 5.32289 17.4707L6.06203 17.1646ZM9.22631 21.0228C7.81344 20.0777 6.71232 18.7352 6.06203 17.1646L5.32289 17.4707C6.03367 19.1873 7.23721 20.6548 8.78152 21.6878L9.22631 21.0228Z" fill="#1E293B"/>
</svg>
